<svg aria-hidden="true" style="width:0;height:0;position:absolute;overflow:hidden" xmlns="http://www.w3.org/2000/svg"><defs><symbol id="icon-youtube-logo" viewBox="0 0 32 32"><path d="M25.235 23.876h-1.648l.008-.964a.78.78 0 0 1 .776-.779h.105c.428 0 .778.351.778.779l-.019.964zm-6.181-2.067c-.418 0-.76.283-.76.63v4.69c0 .346.342.628.76.628.42 0 .762-.282.762-.628v-4.69c0-.347-.342-.63-.762-.63zm10.037-2.624v8.923c0 2.14-1.842 3.892-4.093 3.892H8.166c-2.252 0-4.093-1.751-4.093-3.892v-8.923c0-2.14 1.841-3.892 4.093-3.892h16.832c2.251 0 4.093 1.752 4.093 3.892zM9.289 29.077l-.001-9.399 2.087.001v-1.393l-5.562-.008v1.369l1.736.005v9.426H9.29zm6.254-7.999h-1.74v5.019c0 .726.044 1.089-.003 1.217-.141.389-.777.802-1.025.042-.042-.133-.005-.535-.006-1.225l-.007-5.054h-1.73l.005 4.974c.001.762-.017 1.331.006 1.59.042.456.027.988.447 1.292.783.568 2.283-.085 2.658-.897l-.003 1.036 1.397.002v-7.997zm5.565 5.747-.004-4.178c-.001-1.592-1.183-2.546-2.788-1.258l.007-3.106-1.738.003-.008 10.72 1.429-.021.13-.668c1.827 1.688 2.974.532 2.972-1.493zm5.444-.553-1.305.007-.003.178v.733a.715.715 0 0 1-.713.712h-.256a.714.714 0 0 1-.713-.712v-1.929h2.987v-1.133c0-.828-.021-1.656-.089-2.129-.213-1.497-2.299-1.735-3.352-.969-.331.239-.583.56-.73.99-.148.431-.222 1.019-.222 1.766v2.491c0 4.141 4.991 3.556 4.396-.006zm-6.69-13.523c.09.22.229.398.418.532.187.132.426.199.712.199.251 0 .473-.068.666-.209s.355-.35.488-.629l-.033.688h1.939V5.02h-1.526v6.468c0 .35-.286.637-.636.637a.639.639 0 0 1-.635-.637V5.02h-1.593v5.605c0 .714.013 1.19.034 1.431.022.24.077.47.166.692zm-5.877-4.694c0-.798.066-1.421.197-1.87.132-.447.369-.807.713-1.078.343-.273.781-.409 1.315-.409.449 0 .833.089 1.154.263.323.175.571.402.744.682.176.281.295.57.359.865.065.3.097.751.097 1.361v2.102c0 .771-.031 1.338-.09 1.698s-.186.696-.382 1.01a1.818 1.818 0 0 1-.747.691 2.375 2.375 0 0 1-1.052.223c-.442 0-.814-.062-1.121-.19s-.546-.32-.715-.576c-.171-.256-.292-.568-.364-.932s-.108-.91-.108-1.638v-2.2zm1.519 3.301c0 .471.348.855.771.855s.77-.384.77-.855V6.932c0-.47-.346-.854-.77-.854s-.771.384-.771.854v4.424zm-5.366 2.234h1.829l.002-6.374 2.162-5.46H12.13l-1.149 4.055-1.166-4.067h-1.98l2.3 5.474.003 6.371z"/></symbol><symbol id="icon-facebook-rect-logo" viewBox="0 0 32 32"><path d="M5.843 0A5.83 5.83 0 0 0 0 5.843v20.314A5.83 5.83 0 0 0 5.843 32h11.01V19.49h-3.308v-4.504h3.308v-3.848c0-3.023 1.955-5.799 6.457-5.799 1.823 0 3.171.175 3.171.175l-.106 4.206S25 9.707 23.5 9.707c-1.624 0-1.884.748-1.884 1.99v3.289h4.888l-.213 4.504h-4.675V32h4.541A5.83 5.83 0 0 0 32 26.157V5.843A5.83 5.83 0 0 0 26.157 0H5.843z"/></symbol><symbol id="icon-instagram-square-logo" viewBox="0 0 32 32"><path d="M16 12.19c-.754 0-1.49.224-2.116.643s-1.114 1.014-1.403 1.71a3.803 3.803 0 0 0 .827 4.151 3.817 3.817 0 0 0 4.152.825 3.814 3.814 0 0 0 2.352-3.52 3.808 3.808 0 0 0-3.811-3.81zm8.908-2.929a3.854 3.854 0 0 0-2.173-2.173c-1.5-.592-5.072-.459-6.736-.459s-5.232-.138-6.736.459A3.854 3.854 0 0 0 7.09 9.261c-.591 1.5-.459 5.075-.459 6.738s-.132 5.234.462 6.739a3.854 3.854 0 0 0 2.173 2.172c1.5.592 5.072.459 6.736.459s5.232.138 6.736-.459a3.866 3.866 0 0 0 2.173-2.172c.596-1.5.459-5.075.459-6.738s.137-5.233-.459-6.738l-.003-.001zM16 21.857a5.862 5.862 0 0 1-5.411-3.616 5.86 5.86 0 0 1 7.653-7.653 5.86 5.86 0 0 1 1.902 9.555A5.851 5.851 0 0 1 16 21.857zm6.099-10.593a1.371 1.371 0 0 1-1.264-.843 1.361 1.361 0 0 1 .296-1.49 1.363 1.363 0 0 1 1.49-.296 1.368 1.368 0 0 1 .742 1.788 1.353 1.353 0 0 1-.738.741 1.383 1.383 0 0 1-.523.105l-.003-.003zM28.571 0H3.428A3.428 3.428 0 0 0 0 3.428v25.143a3.428 3.428 0 0 0 3.428 3.428h25.143a3.428 3.428 0 0 0 3.428-3.428V3.428A3.428 3.428 0 0 0 28.571 0zm-1.222 20.714c-.092 1.831-.51 3.453-1.847 4.786s-2.957 1.759-4.786 1.846c-1.886.106-7.542.106-9.429 0-1.831-.092-3.447-.511-4.786-1.846s-1.759-2.959-1.846-4.786c-.106-1.887-.106-7.544 0-9.429.092-1.831.505-3.453 1.846-4.786s2.962-1.754 4.786-1.841c1.886-.106 7.542-.106 9.429 0 1.831.092 3.452.511 4.786 1.846s1.759 2.959 1.847 4.789c.106 1.88.106 7.531 0 9.42z"/></symbol><symbol id="icon-twitch-logo" viewBox="0 0 29 32"><path d="m2.065-.006-2.07 5.493v22.45h7.36v4.057h4.141l3.907-4.057h5.984l8.048-8.357V-.006H2.065zm24.612 18.15-4.602 4.779h-7.36l-3.907 4.057v-4.057H4.597V2.859h22.08v15.286zm-4.602-9.793v8.35h-2.758v-8.35h2.758zm-7.36 0v8.35h-2.758v-8.35h2.758z"/></symbol><symbol id="icon-twitter-square-logo" viewBox="0 0 32 32"><path d="M28.571 0H3.428A3.43 3.43 0 0 0-.001 3.429v25.143a3.43 3.43 0 0 0 3.429 3.429h25.143A3.43 3.43 0 0 0 32 28.572V3.429A3.43 3.43 0 0 0 28.571 0zm-3.492 11.343c.014.2.014.407.014.607 0 6.193-4.714 13.329-13.329 13.329-2.657 0-5.121-.771-7.193-2.1.379.043.743.057 1.129.057a9.392 9.392 0 0 0 5.814-2 4.692 4.692 0 0 1-4.379-3.25c.721.107 1.371.107 2.114-.086a4.685 4.685 0 0 1-3.75-4.6v-.057c.621.35 1.35.564 2.114.593a4.672 4.672 0 0 1-2.085-3.9c0-.871.229-1.671.636-2.364a13.3 13.3 0 0 0 9.657 4.9c-.664-3.179 1.714-5.757 4.571-5.757 1.35 0 2.564.564 3.421 1.479a9.173 9.173 0 0 0 2.971-1.129 4.675 4.675 0 0 1-2.057 2.579 9.3 9.3 0 0 0 2.7-.729 9.88 9.88 0 0 1-2.35 2.429z"/></symbol></defs></svg>